REM MD5 d8681aacccbb943d9804ba0a0e83d165
FILE "Sportweek Player Manager 2001 (Netherlands).bin" BINARY
  TRACK 01 MODE2/2352
    INDEX 01 00:00:00
  TRACK 02 AUDIO
    INDEX 00 04:43:53
    INDEX 01 04:45:53
  TRACK 03 AUDIO
    INDEX 00 04:54:51
    INDEX 01 04:56:51
  TRACK 04 AUDIO
    INDEX 00 05:51:60
    INDEX 01 05:53:60
  TRACK 05 AUDIO
    INDEX 00 08:27:13
    INDEX 01 08:29:13
REM LEADOUT 09:29:13
